<svg xmlns="http://www.w3.org/2000/svg" viewBox="0 0 512 512" role="img" aria-label="Bi Slim Lab">
  <defs>
    <linearGradient id="pink" x1="102" y1="62" x2="408" y2="436" gradientUnits="userSpaceOnUse">
      <stop stop-color="#f24c8e"/>
      <stop offset="1" stop-color="#e94682"/>
    </linearGradient>
    <linearGradient id="mint" x1="321" y1="401" x2="486" y2="293" gradientUnits="userSpaceOnUse">
      <stop stop-color="#62cdb0"/>
      <stop offset="1" stop-color="#74d6c3"/>
    </linearGradient>
    <filter id="softShadow" x="-8%" y="-8%" width="116%" height="116%">
      <feDropShadow dx="0" dy="8" stdDeviation="12" flood-color="#b51f5b" flood-opacity=".12"/>
    </filter>
  </defs>
  <rect width="512" height="512" rx="96" fill="#fff"/>
  <g filter="url(#softShadow)">
    <path fill="url(#pink)" d="M488 244c0 124.8-101.2 226-226 226S36 368.8 36 244 137.2 18 262 18s226 101.2 226 226Z"/>
    <path fill="none" stroke="#fff" stroke-linecap="round" stroke-width="10" d="M48 250C48 124.1 145.8 29 268.3 29c47.5 0 91.4 15.1 127.3 40.8"/>
    <path fill="url(#mint)" d="M482 290c-20.2 38.2-57.1 52.9-94.1 62.5-35.3 9.2-43.8 33.2-53.1 66.6-5.4 19.4-19.8 33.4-36.8 42.4 26.6 5 62.8-4.8 94.1-23.4C444.2 407.2 476.7 349.9 482 290Z"/>
    <path fill="none" stroke="#fff" stroke-linecap="round" stroke-width="10" d="M314 450c48.7-19.4 86.5-48.4 112.2-86.4"/>
  </g>
  <text x="256" y="353" text-anchor="middle" font-family="Yu Mincho, Hiragino Mincho ProN, Noto Serif JP, serif" font-size="254" font-weight="700" fill="#fff">&#x7F8E;</text>
</svg>
